<?xml version="1.0" encoding="UTF-8" standalone="no"?>
<!DOCTYPE svg PUBLIC "-//W3C//DTD SVG 20010904//EN"
              "http://www.w3.org/TR/2001/REC-SVG-20010904/DTD/svg10.dtd">

<svg xmlns="http://www.w3.org/2000/svg"
     width="0.773333in" height="0.32in"
     viewBox="0 0 232 96">
  <path id="Path #1"
        fill="none" stroke="black" stroke-width="1"
        d="M 67.02,30.00
           C 67.02,30.00 51.25,30.00 51.25,30.00
             48.81,30.00 46.70,29.12 44.92,27.36
             43.11,25.60 42.20,23.48 42.20,21.00
             42.20,18.59 43.11,16.48 44.92,14.70
             46.77,12.90 48.88,12.00 51.25,12.00
             51.25,12.00 67.02,12.00 67.02,12.00
             67.02,12.00 67.02,2.00 67.02,2.00
             67.02,2.00 51.25,2.00 51.25,2.00
             45.70,2.00 40.85,3.87 36.72,7.59
             32.46,11.41 30.33,16.04 30.33,21.48
             30.33,26.95 32.46,31.59 36.72,35.41
             40.85,39.14 45.70,41.00 51.25,41.00
             51.25,41.00 67.02,41.00 67.02,41.00
             67.02,41.00 67.02,30.00 67.02,30.00 Z
           M 51.25,42.00
           C 45.23,42.00 40.03,40.02 35.66,36.05
             31.07,31.92 28.78,26.91 28.78,21.02
             28.78,15.14 31.07,10.13 35.66,5.98
             40.03,2.00 45.23,0.00 51.25,0.00
             51.25,0.00 68.56,0.00 68.56,0.00
             68.56,0.00 68.56,14.00 68.56,14.00
             68.56,14.00 51.25,14.00 51.25,14.00
             49.33,14.00 47.59,14.70 46.03,16.08
             44.52,17.46 43.77,19.11 43.77,21.00
             43.77,22.94 44.52,24.59 46.03,25.95
             47.51,27.32 49.25,28.00 51.25,28.00
             51.25,28.00 68.56,28.00 68.56,28.00
             68.56,28.00 68.56,42.00 68.56,42.00
             68.56,42.00 51.25,42.00 51.25,42.00 Z
           M 99.73,21.00
           C 99.73,19.15 98.98,17.52 97.47,16.11
             95.95,14.70 94.21,14.00 92.25,14.00
             90.33,14.00 88.59,14.70 87.03,16.08
             85.52,17.46 84.77,19.11 84.77,21.00
             84.77,22.94 85.52,24.59 87.03,25.95
             88.51,27.32 90.25,28.00 92.25,28.00
             94.25,28.00 95.99,27.32 97.47,25.95
             98.98,24.59 99.73,22.94 99.73,21.00 Z
           M 101.30,21.00
           C 101.30,23.46 100.39,25.57 98.58,27.33
             96.72,29.11 94.61,30.00 92.25,30.00
             89.81,30.00 87.70,29.12 85.92,27.36
             84.11,25.60 83.20,23.48 83.20,21.00
             83.20,18.59 84.11,16.48 85.92,14.70
             87.74,12.90 89.85,12.00 92.25,12.00
             94.63,12.00 96.73,12.90 98.55,14.70
             100.38,16.46 101.30,18.56 101.30,21.00 Z
           M 113.17,21.48
           C 113.17,16.02 111.04,11.39 106.78,7.59
             102.62,3.87 97.78,2.00 92.25,2.00
             86.70,2.00 81.85,3.87 77.72,7.59
             73.46,11.41 71.33,16.04 71.33,21.48
             71.33,26.95 73.46,31.59 77.72,35.41
             81.85,39.14 86.70,41.00 92.25,41.00
             97.80,41.00 102.64,39.16 106.78,35.47
             111.04,31.62 113.17,26.95 113.17,21.48 Z
           M 114.72,21.02
           C 114.72,26.91 112.43,31.92 107.84,36.05
             103.45,40.02 98.25,42.00 92.25,42.00
             86.23,42.00 81.03,40.02 76.66,36.05
             72.07,31.92 69.78,26.91 69.78,21.02
             69.78,15.14 72.07,10.13 76.66,5.98
             81.03,2.00 86.23,0.00 92.25,0.00
             98.27,0.00 103.47,2.00 107.84,5.98
             112.43,10.13 114.72,15.14 114.72,21.02 Z
           M 146.73,21.00
           C 146.73,19.15 145.98,17.52 144.47,16.11
             142.95,14.70 141.21,14.00 139.25,14.00
             137.33,14.00 135.59,14.70 134.03,16.08
             132.52,17.46 131.77,19.11 131.77,21.00
             131.77,22.94 132.52,24.59 134.03,25.95
             135.51,27.32 137.25,28.00 139.25,28.00
             141.25,28.00 142.99,27.32 144.47,25.95
             145.98,24.59 146.73,22.94 146.73,21.00 Z
           M 148.30,21.00
           C 148.30,23.46 147.39,25.57 145.58,27.33
             143.72,29.11 141.61,30.00 139.25,30.00
             136.81,30.00 134.70,29.12 132.92,27.36
             131.11,25.60 130.20,23.48 130.20,21.00
             130.20,18.59 131.11,16.48 132.92,14.70
             134.74,12.90 136.85,12.00 139.25,12.00
             141.63,12.00 143.73,12.90 145.55,14.70
             147.38,16.46 148.30,18.56 148.30,21.00 Z
           M 160.17,21.48
           C 160.17,16.02 158.04,11.39 153.78,7.59
             149.62,3.87 144.78,2.00 139.25,2.00
             133.70,2.00 128.85,3.87 124.72,7.59
             120.46,11.41 118.33,16.04 118.33,21.48
             118.33,26.95 120.46,31.59 124.72,35.41
             128.85,39.14 133.70,41.00 139.25,41.00
             144.80,41.00 149.64,39.16 153.78,35.47
             158.04,31.62 160.17,26.95 160.17,21.48 Z
           M 161.72,21.02
           C 161.72,26.91 159.43,31.92 154.84,36.05
             150.45,40.02 145.25,42.00 139.25,42.00
             133.23,42.00 128.03,40.02 123.66,36.05
             119.07,31.92 116.78,26.91 116.78,21.02
             116.78,15.14 119.07,10.13 123.66,5.98
             128.03,2.00 133.23,0.00 139.25,0.00
             145.27,0.00 150.47,2.00 154.84,5.98
             159.43,10.13 161.72,15.14 161.72,21.02 Z
           M 202.02,30.00
           C 202.02,30.00 178.77,30.00 178.77,30.00
             178.77,30.00 178.77,2.00 178.77,2.00
             178.77,2.00 165.33,2.00 165.33,2.00
             165.33,2.00 165.33,41.00 165.33,41.00
             165.33,41.00 202.02,41.00 202.02,41.00
             202.02,41.00 202.02,30.00 202.02,30.00 Z
           M 163.78,42.00
           C 163.78,42.00 163.78,0.00 163.78,0.00
             163.78,0.00 180.31,0.00 180.31,0.00
             180.31,0.00 180.31,28.00 180.31,28.00
             180.31,28.00 203.56,28.00 203.56,28.00
             203.56,28.00 203.56,42.00 203.56,42.00
             203.56,42.00 163.78,42.00 163.78,42.00 Z
           M 111.55,69.56
           C 111.55,69.56 109.06,79.00 109.06,79.00
             109.06,79.00 114.03,79.00 114.03,79.00
             114.03,79.00 111.55,69.56 111.55,69.56 Z
           M 107.11,81.00
           C 107.11,81.00 111.55,63.80 111.55,63.80
             111.55,63.80 115.97,81.00 115.97,81.00
             115.97,81.00 107.11,81.00 107.11,81.00 Z
           M 123.11,55.00
           C 123.11,55.00 99.95,55.00 99.95,55.00
             99.95,55.00 89.58,94.00 89.58,94.00
             89.58,94.00 103.47,94.00 103.47,94.00
             103.47,94.00 104.83,89.00 104.83,89.00
             104.83,89.00 118.27,89.00 118.27,89.00
             118.27,89.00 119.61,94.00 119.61,94.00
             119.61,94.00 133.50,94.00 133.50,94.00
             133.50,94.00 123.11,55.00 123.11,55.00 Z
           M 118.36,95.00
           C 118.36,95.00 117.03,91.00 117.03,91.00
             117.03,91.00 106.08,91.00 106.08,91.00
             106.08,91.00 104.70,95.00 104.70,95.00
             104.70,95.00 87.61,95.00 87.61,95.00
             87.61,95.00 98.72,53.00 98.72,53.00
             98.72,53.00 124.36,53.00 124.36,53.00
             124.36,53.00 135.47,95.00 135.47,95.00
             135.47,95.00 118.36,95.00 118.36,95.00 Z
           M 29.19,65.00
           C 28.60,65.00 28.11,65.23 27.72,65.70
             27.32,66.16 27.12,66.69 27.12,67.28
             27.12,67.76 27.32,68.18 27.70,68.55
             28.37,69.09 28.96,69.55 29.48,69.92
             30.02,70.29 30.47,70.59 30.86,70.81
             33.60,72.74 35.55,74.43 36.72,75.88
             38.52,78.01 39.42,80.40 39.42,83.03
             39.42,86.09 38.17,88.70 35.67,90.88
             33.20,92.96 30.47,94.00 27.48,94.00
             27.48,94.00 5.33,94.00 5.33,94.00
             5.33,94.00 5.33,83.00 5.33,83.00
             5.33,83.00 19.66,83.00 19.66,83.00
             20.24,83.00 20.72,82.77 21.11,82.31
             21.50,81.86 21.70,81.34 21.70,80.77
             21.70,80.11 20.73,79.16 18.80,77.92
             16.18,76.33 14.38,74.98 13.39,73.89
             11.45,71.79 10.48,69.27 10.48,66.34
             10.48,63.32 11.69,60.68 14.09,58.41
             16.51,56.14 19.27,55.00 22.38,55.00
             22.38,55.00 91.17,55.00 91.17,55.00
             91.17,55.00 91.17,65.00 91.17,65.00
             91.17,65.00 76.97,65.00 76.97,65.00
             76.97,65.00 76.97,94.00 76.97,94.00
             76.97,94.00 63.53,94.00 63.53,94.00
             63.53,94.00 63.53,65.00 63.53,65.00
             63.53,65.00 29.19,65.00 29.19,65.00 Z
           M 29.19,67.00
           C 28.84,67.00 28.67,67.23 28.67,67.69
             28.67,67.69 36.12,73.25 36.12,73.25
             39.35,75.66 40.97,78.88 40.97,82.92
             40.97,86.28 39.58,89.14 36.81,91.50
             34.05,93.84 30.95,95.00 27.50,95.00
             27.50,95.00 3.78,95.00 3.78,95.00
             3.78,95.00 3.78,81.00 3.78,81.00
             3.78,81.00 19.66,81.00 19.66,81.00
             20.00,81.00 20.17,80.76 20.17,80.28
             19.40,79.75 18.43,79.07 17.27,78.25
             16.11,77.42 14.77,76.43 13.23,75.30
             10.37,73.20 8.94,70.05 8.94,65.86
             8.94,62.40 10.30,59.40 13.03,56.84
             15.75,54.28 18.86,53.00 22.38,53.00
             22.38,53.00 92.72,53.00 92.72,53.00
             92.72,53.00 92.72,67.00 92.72,67.00
             92.72,67.00 78.52,67.00 78.52,67.00
             78.52,67.00 78.52,95.00 78.52,95.00
             78.52,95.00 61.98,95.00 61.98,95.00
             61.98,95.00 61.98,67.00 61.98,67.00
             61.98,67.00 29.19,67.00 29.19,67.00 Z
           M 175.02,83.00
           C 173.42,83.00 172.02,81.94 170.81,79.81
             173.63,78.75 175.85,77.21 177.47,75.20
             179.27,73.02 180.17,70.52 180.17,67.72
             180.17,64.25 178.80,61.27 176.08,58.77
             173.38,56.26 170.27,55.00 166.73,55.00
             166.73,55.00 138.33,55.00 138.33,55.00
             138.33,55.00 138.33,65.00 138.33,65.00
             138.33,65.00 162.61,65.00 162.61,65.00
             163.70,65.00 164.66,65.45 165.50,66.36
             166.32,67.26 166.73,68.31 166.73,69.52
             166.73,70.70 166.32,71.75 165.50,72.64
             164.66,73.55 163.70,74.00 162.61,74.00
             162.61,74.00 138.33,74.00 138.33,74.00
             138.33,74.00 138.33,94.00 138.33,94.00
             138.33,94.00 151.77,94.00 151.77,94.00
             151.77,94.00 151.77,79.75 151.77,79.75
             151.77,79.75 160.78,88.95 160.78,88.95
             164.07,92.32 167.27,94.00 170.36,94.00
             170.36,94.00 209.48,94.00 209.48,94.00
             212.47,94.00 215.20,92.96 217.67,90.88
             220.17,88.70 221.42,86.09 221.42,83.03
             221.42,80.40 220.52,78.01 218.72,75.88
             217.55,74.43 215.60,72.74 212.86,70.81
             212.47,70.59 212.02,70.29 211.48,69.92
             210.96,69.55 210.37,69.09 209.70,68.55
             209.32,68.18 209.12,67.76 209.12,67.28
             209.12,66.69 209.32,66.16 209.72,65.70
             210.11,65.23 210.60,65.00 211.19,65.00
             211.19,65.00 226.59,65.00 226.59,65.00
             226.59,65.00 226.59,55.00 226.59,55.00
             226.59,55.00 204.38,55.00 204.38,55.00
             201.27,55.00 198.51,56.14 196.09,58.41
             193.69,60.68 192.48,63.32 192.48,66.34
             192.48,69.27 193.45,71.79 195.39,73.89
             196.38,74.98 198.18,76.33 200.80,77.92
             202.73,79.16 203.70,80.11 203.70,80.77
             203.70,81.34 203.50,81.86 203.11,82.31
             202.72,82.77 202.24,83.00 201.66,83.00
             201.66,83.00 175.02,83.00 175.02,83.00 Z
           M 201.66,81.00
           C 202.00,81.00 202.17,80.76 202.17,80.28
             201.40,79.75 200.43,79.07 199.27,78.25
             198.11,77.42 196.77,76.43 195.23,75.30
             192.37,73.20 190.94,70.05 190.94,65.86
             190.94,62.40 192.30,59.40 195.03,56.84
             197.75,54.28 200.86,53.00 204.38,53.00
             204.38,53.00 228.14,53.00 228.14,53.00
             228.14,53.00 228.14,67.00 228.14,67.00
             228.14,67.00 211.19,67.00 211.19,67.00
             210.84,67.00 210.67,67.23 210.67,67.69
             210.67,67.69 218.12,73.25 218.12,73.25
             221.35,75.66 222.97,78.88 222.97,82.92
             222.97,86.28 221.58,89.14 218.81,91.50
             216.05,93.84 212.95,95.00 209.50,95.00
             209.50,95.00 170.36,95.00 170.36,95.00
             167.35,95.00 164.20,93.63 160.91,90.89
             160.75,90.75 160.04,90.05 158.78,88.81
             157.52,87.57 155.70,85.76 153.31,83.38
             153.31,83.38 153.31,95.00 153.31,95.00
             153.31,95.00 136.78,95.00 136.78,95.00
             136.78,95.00 136.78,72.00 136.78,72.00
             136.78,72.00 162.61,72.00 162.61,72.00
             162.95,72.00 163.28,71.93 163.59,71.80
             163.91,71.66 164.18,71.48 164.41,71.27
             164.64,71.04 164.83,70.77 164.97,70.47
             165.11,70.17 165.19,69.85 165.19,69.52
             165.19,69.18 165.11,68.87 164.97,68.56
             164.83,68.26 164.64,68.00 164.41,67.77
             164.18,67.53 163.91,67.34 163.59,67.20
             163.28,67.07 162.95,67.00 162.61,67.00
             162.61,67.00 136.78,67.00 136.78,67.00
             136.78,67.00 136.78,53.00 136.78,53.00
             136.78,53.00 166.73,53.00 166.73,53.00
             170.72,53.00 174.21,54.42 177.20,57.27
             180.21,60.09 181.72,63.45 181.72,67.34
             181.72,70.17 180.92,72.73 179.33,75.03
             177.72,77.38 175.66,79.13 173.14,80.30
             173.64,80.77 174.27,81.00 175.02,81.00
             175.02,81.00 201.66,81.00 201.66,81.00 Z" />
</svg>
